{
    "accessors" : [
        {
            "bufferView" : 0, 
            "componentType" : 5123, 
            "count" : 2880, 
            "max" : [
                1983
            ], 
            "min" : [
                0
            ], 
            "type" : "SCALAR"
        }, 
        {
            "bufferView" : 1, 
            "componentType" : 5126, 
            "count" : 1984, 
            "max" : [
                1.000000238418579, 
                1.0, 
                1.0000003576278687
            ], 
            "min" : [
                -0.9999998211860657, 
                -1.0, 
                -1.0
            ], 
            "type" : "VEC3"
        }, 
        {
            "bufferView" : 2, 
            "componentType" : 5126, 
            "count" : 1984, 
            "max" : [
                1.0, 
                1.0, 
                1.0
            ], 
            "min" : [
                -1.0, 
                -1.0, 
                -1.0
            ], 
            "type" : "VEC3"
        }, 
        {
            "bufferView" : 3, 
            "componentType" : 5126, 
            "count" : 1984, 
            "max" : [
                0.9951848983764648, 
                3.365310703884461e-06, 
                0.9951857328414917, 
                1.0
            ], 
            "min" : [
                -0.9951851963996887, 
                -3.123325541309896e-06, 
                -0.9951848387718201, 
                1.0
            ], 
            "type" : "VEC4"
        }, 
        {
            "bufferView" : 4, 
            "componentType" : 5126, 
            "count" : 1984, 
            "max" : [
                1.000000238418579, 
                1.0
            ], 
            "min" : [
                0.0, 
                0.0
            ], 
            "type" : "VEC2"
        }, 
        {
            "bufferView" : 5, 
            "componentType" : 5126, 
            "count" : 90, 
            "max" : [
                3.75
            ], 
            "min" : [
                0.041666666666666664
            ], 
            "type" : "SCALAR"
        }, 
        {
            "bufferView" : 6, 
            "componentType" : 5126, 
            "count" : 90, 
            "max" : [
                0.0, 
                0.0, 
                -0.0
            ], 
            "min" : [
                0.0, 
                0.0, 
                -8.701018333435059
            ], 
            "type" : "VEC3"
        }, 
        {
            "bufferView" : 7, 
            "componentType" : 5126, 
            "count" : 90, 
            "max" : [
                3.75
            ], 
            "min" : [
                0.041666666666666664
            ], 
            "type" : "SCALAR"
        }, 
        {
            "bufferView" : 8, 
            "componentType" : 5126, 
            "count" : 90, 
            "max" : [
                0.0, 
                0.0, 
                -0.0, 
                1.0
            ], 
            "min" : [
                0.0, 
                0.0, 
                -0.0, 
                1.0
            ], 
            "type" : "VEC4"
        }, 
        {
            "bufferView" : 9, 
            "componentType" : 5126, 
            "count" : 90, 
            "max" : [
                3.75
            ], 
            "min" : [
                0.041666666666666664
            ], 
            "type" : "SCALAR"
        }, 
        {
            "bufferView" : 10, 
            "componentType" : 5126, 
            "count" : 90, 
            "max" : [
                1.0, 
                1.0, 
                1.0
            ], 
            "min" : [
                -2.1171298027038574, 
                -2.1171298027038574, 
                -2.1171298027038574
            ], 
            "type" : "VEC3"
        }, 
        {
            "bufferView" : 11, 
            "componentType" : 5126, 
            "count" : 1, 
            "max" : [
                3.75
            ], 
            "min" : [
                3.75
            ], 
            "type" : "SCALAR"
        }, 
        {
            "bufferView" : 12, 
            "componentType" : 5126, 
            "count" : 1, 
            "max" : [
                0.012880138121545315, 
                0.1603466421365738, 
                1.0, 
                1.0
            ], 
            "min" : [
                0.012880138121545315, 
                0.1603466421365738, 
                1.0, 
                1.0
            ], 
            "type" : "VEC4"
        }
    ], 
    "animations" : [
        {
            "channels" : [
                {
                    "sampler" : 0, 
                    "target" : {
                        "node" : 0, 
                        "path" : "translation"
                    }
                }, 
                {
                    "sampler" : 1, 
                    "target" : {
                        "node" : 0, 
                        "path" : "rotation"
                    }
                }, 
                {
                    "sampler" : 2, 
                    "target" : {
                        "node" : 0, 
                        "path" : "scale"
                    }
                }, 
                {
                    "sampler" : 3, 
                    "target" : {
                        "node" : 0, 
                        "path" : "material.nodeRGB[\"Emission\"]"
                    }
                }
            ], 
            "extensions" : {
                "S8S_v3d_animation_data" : {
                    "auto" : true, 
                    "loop" : "REPEAT", 
                    "offset" : 0.0, 
                    "repeatCount" : 1.0, 
                    "repeatInfinite" : true
                }
            }, 
            "name" : "Sphere", 
            "samplers" : [
                {
                    "input" : 5, 
                    "interpolation" : "LINEAR", 
                    "output" : 6
                }, 
                {
                    "input" : 7, 
                    "interpolation" : "LINEAR", 
                    "output" : 8
                }, 
                {
                    "input" : 9, 
                    "interpolation" : "LINEAR", 
                    "output" : 10
                }, 
                {
                    "input" : 11, 
                    "interpolation" : "LINEAR", 
                    "output" : 12
                }
            ]
        }
    ], 
    "asset" : {
        "generator" : "Soft8Soft Verge3D for Blender add-on", 
        "version" : "2.0"
    }, 
    "bufferViews" : [
        {
            "buffer" : 0, 
            "byteLength" : 5760, 
            "byteOffset" : 0, 
            "target" : 34963
        }, 
        {
            "buffer" : 0, 
            "byteLength" : 23808, 
            "byteOffset" : 5760, 
            "target" : 34962
        }, 
        {
            "buffer" : 0, 
            "byteLength" : 23808, 
            "byteOffset" : 29568, 
            "target" : 34962
        }, 
        {
            "buffer" : 0, 
            "byteLength" : 31744, 
            "byteOffset" : 53376, 
            "target" : 34962
        }, 
        {
            "buffer" : 0, 
            "byteLength" : 15872, 
            "byteOffset" : 85120, 
            "target" : 34962
        }, 
        {
            "buffer" : 0, 
            "byteLength" : 360, 
            "byteOffset" : 100992
        }, 
        {
            "buffer" : 0, 
            "byteLength" : 1080, 
            "byteOffset" : 101352
        }, 
        {
            "buffer" : 0, 
            "byteLength" : 360, 
            "byteOffset" : 102432
        }, 
        {
            "buffer" : 0, 
            "byteLength" : 1440, 
            "byteOffset" : 102792
        }, 
        {
            "buffer" : 0, 
            "byteLength" : 360, 
            "byteOffset" : 104232
        }, 
        {
            "buffer" : 0, 
            "byteLength" : 1080, 
            "byteOffset" : 104592
        }, 
        {
            "buffer" : 0, 
            "byteLength" : 4, 
            "byteOffset" : 105672
        }, 
        {
            "buffer" : 0, 
            "byteLength" : 16, 
            "byteOffset" : 105676
        }
    ], 
    "buffers" : [
        {
            "byteLength" : 105692, 
            "uri" : "test.bin"
        }
    ], 
    "cameras" : [
        {
            "extensions" : {
                "S8S_v3d_camera_data" : {
                    "controls" : "ORBIT", 
                    "enablePan" : true, 
                    "moveSpeed" : 1.0, 
                    "orbitMaxDistance" : 100.0, 
                    "orbitMaxPolarAngle" : 3.1415927410125732, 
                    "orbitMinDistance" : 0.0, 
                    "orbitMinPolarAngle" : 0.0, 
                    "orbitTarget" : [
                        0.0, 
                        0.0, 
                        -0.0
                    ], 
                    "rotateSpeed" : 1.0, 
                    "viewportFitInitialAspect" : 1.7777777777777777, 
                    "viewportFitType" : "AUTO"
                }
            }, 
            "name" : "Camera", 
            "perspective" : {
                "aspectRatio" : 1.7777777777777777, 
                "yfov" : 0.5033799372418416, 
                "zfar" : 100.0, 
                "znear" : 0.10000000149011612
            }, 
            "type" : "perspective"
        }
    ], 
    "extensions" : {
        "S8S_v3d_data" : {
            "lights" : [
                {
                    "color" : [
                        0, 
                        0, 
                        0
                    ], 
                    "name" : "Ambient_Scene", 
                    "profile" : "blender", 
                    "type" : "ambient"
                }
            ]
        }
    }, 
    "extensionsUsed" : [
        "S8S_v3d_texture_data", 
        "S8S_v3d_material_data", 
        "S8S_v3d_camera_data", 
        "S8S_v3d_data", 
        "S8S_v3d_mesh_data", 
        "S8S_v3d_node_data", 
        "S8S_v3d_animation_data", 
        "S8S_v3d_scene_data"
    ], 
    "images" : [
        {
            "uri" : "environment.hdr"
        }
    ], 
    "materials" : [
        {
            "extensions" : {
                "S8S_v3d_material_data" : {
                    "nodeGraph" : {
                        "edges" : [
                            {
                                "fromNode" : 1, 
                                "fromOutput" : 0, 
                                "toInput" : 0, 
                                "toNode" : 0
                            }
                        ], 
                        "nodes" : [
                            {
                                "inputs" : [
                                    [
                                        0, 
                                        0, 
                                        0, 
                                        0
                                    ], 
                                    [
                                        0, 
                                        0, 
                                        0, 
                                        0
                                    ], 
                                    [
                                        0.0, 
                                        0.0, 
                                        0.0
                                    ]
                                ], 
                                "is_active_output" : true, 
                                "name" : "Material Output", 
                                "outputs" : [], 
                                "type" : "OUTPUT_MATERIAL"
                            }, 
                            {
                                "inputs" : [
                                    [
                                        0.012880138121545315, 
                                        0.1603466421365738, 
                                        1.0, 
                                        1.0
                                    ], 
                                    5.0
                                ], 
                                "is_active_output" : false, 
                                "name" : "Emission", 
                                "outputs" : [
                                    [
                                        0, 
                                        0, 
                                        0, 
                                        0
                                    ]
                                ], 
                                "type" : "EMISSION"
                            }
                        ]
                    }
                }
            }, 
            "name" : "Material"
        }, 
        {
            "extensions" : {
                "S8S_v3d_material_data" : {
                    "nodeGraph" : {
                        "edges" : [
                            {
                                "fromNode" : 0, 
                                "fromOutput" : 0, 
                                "toInput" : 0, 
                                "toNode" : 1
                            }, 
                            {
                                "fromNode" : 4, 
                                "fromOutput" : 0, 
                                "toInput" : 1, 
                                "toNode" : 2
                            }, 
                            {
                                "fromNode" : 3, 
                                "fromOutput" : 0, 
                                "toInput" : 0, 
                                "toNode" : 2
                            }, 
                            {
                                "fromNode" : 2, 
                                "fromOutput" : 0, 
                                "toInput" : 0, 
                                "toNode" : 0
                            }
                        ], 
                        "nodes" : [
                            {
                                "inputs" : [
                                    [
                                        0.05087608844041824, 
                                        0.05087608844041824, 
                                        0.05087608844041824, 
                                        1.0
                                    ], 
                                    1.0
                                ], 
                                "is_active_output" : false, 
                                "name" : "Background", 
                                "outputs" : [
                                    [
                                        0, 
                                        0, 
                                        0, 
                                        0
                                    ]
                                ], 
                                "type" : "BACKGROUND"
                            }, 
                            {
                                "inputs" : [
                                    [
                                        0, 
                                        0, 
                                        0, 
                                        0
                                    ], 
                                    [
                                        0, 
                                        0, 
                                        0, 
                                        0
                                    ]
                                ], 
                                "is_active_output" : true, 
                                "name" : "World Output", 
                                "outputs" : [], 
                                "type" : "OUTPUT_WORLD"
                            }, 
                            {
                                "blendType" : "MIX", 
                                "inputs" : [
                                    0.5, 
                                    [
                                        0.5, 
                                        0.5, 
                                        0.5, 
                                        1.0
                                    ], 
                                    [
                                        0.05126946419477463, 
                                        0.05126946419477463, 
                                        0.05126946419477463, 
                                        1.0
                                    ]
                                ], 
                                "is_active_output" : false, 
                                "name" : "Mix", 
                                "outputs" : [
                                    [
                                        0.0, 
                                        0.0, 
                                        0.0, 
                                        0.0
                                    ]
                                ], 
                                "type" : "MIX_RGB", 
                                "useClamp" : false
                            }, 
                            {
                                "inputs" : [], 
                                "is_active_output" : false, 
                                "name" : "Light Path", 
                                "outputs" : [
                                    0.0, 
                                    0.0, 
                                    0.0, 
                                    0.0, 
                                    0.0, 
                                    0.0, 
                                    0.0, 
                                    0.0, 
                                    0.0, 
                                    0.0, 
                                    0.0, 
                                    0.0, 
                                    0.0
                                ], 
                                "type" : "LIGHT_PATH"
                            }, 
                            {
                                "inputs" : [
                                    [
                                        0.0, 
                                        0.0, 
                                        0.0
                                    ]
                                ], 
                                "is_active_output" : false, 
                                "name" : "Environment Texture", 
                                "outputs" : [
                                    [
                                        0.0, 
                                        0.0, 
                                        0.0, 
                                        0.0
                                    ]
                                ], 
                                "texture" : 0, 
                                "type" : "TEX_ENVIRONMENT"
                            }
                        ]
                    }
                }
            }, 
            "name" : "Verge3D_Environment_World"
        }
    ], 
    "meshes" : [
        {
            "extensions" : {
                "S8S_v3d_mesh_data" : {
                    "colorLayers" : {}, 
                    "uvLayers" : {
                        "UVMap" : "TEXCOORD_0"
                    }
                }
            }, 
            "name" : "Sphere.001", 
            "primitives" : [
                {
                    "attributes" : {
                        "NORMAL" : 2, 
                        "POSITION" : 1, 
                        "TANGENT" : 3, 
                        "TEXCOORD_0" : 4
                    }, 
                    "indices" : 0, 
                    "material" : 0, 
                    "mode" : 4
                }
            ]
        }
    ], 
    "nodes" : [
        {
            "extensions" : {
                "S8S_v3d_node_data" : {
                    "frustumCulling" : true, 
                    "groupNames" : [], 
                    "hidden" : false, 
                    "renderOrder" : 0
                }
            }, 
            "extras" : {
                "customProps" : {
                    "prop" : 1.0
                }
            }, 
            "mesh" : 0, 
            "name" : "Sphere"
        }, 
        {
            "camera" : 0, 
            "extensions" : {
                "S8S_v3d_node_data" : {
                    "frustumCulling" : true, 
                    "groupNames" : [
                        "Collection 1"
                    ], 
                    "hidden" : false, 
                    "renderOrder" : 0
                }
            }, 
            "name" : "Camera", 
            "rotation" : [
                -0.2099730223417282, 
                0.3857799768447876, 
                0.09062845259904861, 
                0.8937963247299194
            ], 
            "scale" : [
                1.0, 
                0.9999998807907104, 
                0.9999998807907104
            ], 
            "translation" : [
                7.226052284240723, 
                5.1113457679748535, 
                6.946681022644043
            ]
        }
    ], 
    "samplers" : [
        {}
    ], 
    "scene" : 0, 
    "scenes" : [
        {
            "extensions" : {
                "S8S_v3d_scene_data" : {
                    "aaMethod" : "AUTO", 
                    "light" : 0, 
                    "physicallyCorrectLights" : true, 
                    "worldMaterial" : 1
                }
            }, 
            "extras" : {
                "animFrameRate" : 24
            }, 
            "name" : "Scene", 
            "nodes" : [
                0, 
                1
            ]
        }
    ], 
    "textures" : [
        {
            "extensions" : {
                "S8S_v3d_texture_data" : {
                    "colorSpace" : "linear"
                }
            }, 
            "name" : "environment.hdr", 
            "sampler" : 0, 
            "source" : 0
        }
    ]
}
